/* XPM */
static char * menu_active_xpm[] = {
"20 24 3 1",
" 	c None",
".	c #242424",
"+	c #C5C5C5",
"....................",
"....................",
"....................",
"....................",
"....................",
"....................",
"....................",
"....................",
"....................",
"......++++++++......",
"......++++++++......",
".......++++++.......",
"........++++........",
".........++.........",
"....................",
"....................",
"....................",
"....................",
"....................",
"....................",
"....................",
"....................",
"....................",
"...................."};
